<?xml version="1.0" ?><svg xmlns="http://www.w3.org/2000/svg" viewBox="0 0 64 64"><g id="Solid"><path d="M25.0117,15.7734a.5.5,0,0,1,.2612-.7939l4.0582-1.0986,2.2714-3.6319a.5187.5187,0,0,1,.8477,0l2.2715,3.6319L38.78,14.98a.5.5,0,0,1,.2612.7939L36.38,19.1211l.2388,4.3193a.5.5,0,0,1-.4991.5274.4867.4867,0,0,1-.1855-.0362l-3.9077-1.5634-3.9077,1.5634a.4993.4993,0,0,1-.6846-.4912l.2388-4.3193ZM11.1758,30.4609a.4993.4993,0,0,0,.6846.4912L15.14,29.64l3.28,1.3125a.4872.4872,0,0,0,.1856.0362.5.5,0,0,0,.499-.5274l-.2007-3.6279,2.2349-2.8115a.5.5,0,0,0-.2612-.794l-3.4063-.9218-1.9072-3.0489a.5187.5187,0,0,0-.8477,0l-1.9072,3.0489-3.4058.9218a.5.5,0,0,0-.2612.794L11.376,26.833Zm43.7661-6.9072a.5.5,0,0,0-.3447-.3262l-3.4058-.9218-1.9072-3.0489a.5187.5187,0,0,0-.8477,0l-1.9072,3.0489-3.4063.9218a.5.5,0,0,0-.2612.794l2.2349,2.8115-.2007,3.6279a.5.5,0,0,0,.499.5274.4872.4872,0,0,0,.1856-.0362L48.86,29.64,52.14,30.9521a.4993.4993,0,0,0,.6846-.4912l-.2-3.6279,2.2344-2.8115A.5026.5026,0,0,0,54.9419,23.5537ZM18,14a2,2,0,1,0-2-2A2,2,0,0,0,18,14Zm28.0529,0a2,2,0,1,0-2-2A2,2,0,0,0,46.0529,14ZM32,26a.5.5,0,0,0-.5.5v21a.5.5,0,0,0,1,0v-21A.5.5,0,0,0,32,26ZM15.9336,32.251a.5.5,0,1,0-.8672.498c3.6187,6.3,9.0483,15.4414,14.4033,22.0762a.5.5,0,0,0,.39.1855.495.495,0,0,0,.3135-.1113.5.5,0,0,0,.0751-.7031C24.9375,47.6172,19.5352,38.5205,15.9336,32.251Zm-5.54,9.0469a.5.5,0,1,0-.7876.6152c.061.0781,6.1669,7.8515,11.6147,12.08a.5.5,0,1,0,.6133-.7891C16.4849,49.0508,10.4541,41.374,10.3936,41.2979ZM48.749,32.0664a.4988.4988,0,0,0-.6826.1846c-3.6016,6.27-9.0039,15.3662-14.3144,21.9453a.5.5,0,0,0,.0751.7031.495.495,0,0,0,.3135.1113.5.5,0,0,0,.39-.1855C39.8853,48.19,45.3149,39.0488,48.9336,32.749A.5.5,0,0,0,48.749,32.0664Zm4.857,9.2315c-.06.0761-6.0889,7.7519-11.44,11.9062a.5.5,0,1,0,.6133.7891c5.4478-4.2286,11.5537-12.002,11.6147-12.08a.5.5,0,0,0-.788-.6152Z"/></g></svg>